<?xml version="1.0" encoding="UTF-8" standalone="no"?>
<!DOCTYPE svg PUBLIC "-//W3C//DTD SVG 1.1//EN"
 "http://www.w3.org/Graphics/SVG/1.1/DTD/svg11.dtd">
<!-- Generated by graphviz version 2.26.3 (20100126.1600)
 -->
<!-- Title: G Pages: 1 -->
<svg width="344pt" height="98pt"
 viewBox="0.00 0.00 344.00 98.00" xmlns="http://www.w3.org/2000/svg" xmlns:xlink="http://www.w3.org/1999/xlink">
<g id="graph1" class="graph" transform="scale(1 1) rotate(0) translate(4 94)">
<title>G</title>
<polygon fill="white" stroke="white" points="-4,5 -4,-94 341,-94 341,5 -4,5"/>
<g id="graph2" class="cluster"><title>cluster_global</title>
<polyline fill="none" stroke="gray" points="186,-8 316,-8 "/>
<path fill="none" stroke="gray" d="M316,-8C322,-8 328,-14 328,-20"/>
<polyline fill="none" stroke="gray" points="328,-20 328,-70 "/>
<path fill="none" stroke="gray" d="M328,-70C328,-76 322,-82 316,-82"/>
<polyline fill="none" stroke="gray" points="316,-82 186,-82 "/>
<path fill="none" stroke="gray" d="M186,-82C180,-82 174,-76 174,-70"/>
<polyline fill="none" stroke="gray" points="174,-70 174,-20 "/>
<path fill="none" stroke="gray" d="M174,-20C174,-14 180,-8 186,-8"/>
<text text-anchor="middle" x="251" y="-68.1" font-family="Times Roman,serif" font-size="11.00" fill="gray">global</text>
</g>
<!-- \\DownloadSimpleHeap -->
<g id="node2" class="node"><title>\\DownloadSimpleHeap</title>
<a xlink:href="heap.html" xlink:title="DownloadSimpleHeap" target="_parent">
<polygon fill="none" stroke="black" points="320,-52 182,-52 182,-16 320,-16 320,-52"/>
<text text-anchor="middle" x="251" y="-31.1" font-family="Courier,monospace" font-size="11.00">DownloadSimpleHeap</text>
</a>
</g>
<!-- \\SplHeap -->
<g id="node4" class="node"><title>\\SplHeap</title>
<ellipse fill="none" stroke="black" cx="55" cy="-34" rx="53.9477" ry="18.3848"/>
<text text-anchor="middle" x="55" y="-30.4" font-family="Times Roman,serif" font-size="14.00" fill="gray">\SplHeap</text>
</g>
<!-- \\DownloadSimpleHeap&#45;&gt;\\SplHeap -->
<g id="edge3" class="edge"><title>\\DownloadSimpleHeap&#45;&gt;\\SplHeap</title>
<path fill="none" stroke="black" d="M181.898,-34C161.719,-34 139.745,-34 119.841,-34"/>
<polygon fill="none" stroke="black" points="119.641,-30.5001 109.641,-34 119.641,-37.5001 119.641,-30.5001"/>
</g>
</g>
</svg>
